<svg xmlns="http://www.w3.org/2000/svg" viewBox="0 0 448 512">
  <path d="M224.1 141c-63.6 0-114.9 51.3-114.9 114.9s51.3 114.9 114.9 114.9S339 319.5 339 255.9 287.7 141 224.1 141zm0 189.6c-41.1 0-74.7-33.5-74.7-74.7s33.5-74.7 74.7-74.7 74.7 33.5 74.7 74.7-33.6 74.7-74.7 74.7zm146.4-194.3c0 14.9-12 26.8-26.8 26.8-14.9 0-26.8-12-26.8-26.8s12-26.8 26.8-26.8 26.8 12 26.8 26.8zm76.1 26.8c-1.7-39.8-11-75.9-27.7-107.7-18.2-34.5-44.9-61.2-79.4-79.4-31.8-16.7-67.9-26-107.7-27.7-28.1-1.2-112.3-1.2-140.3 0-39.8 1.7-75.9 11-107.7 27.7-34.5 18.2-61.2 44.9-79.4 79.4-16.7 31.8-26 67.9-27.7 107.7-1.2 28.1-1.2 112.2 0 140.3 1.7 39.8 11 75.9 27.7 107.7 18.2 34.5 44.9 61.2 79.4 79.4 31.8 16.7 67.9 26 107.7 27.7 28.1 1.2 112.3 1.2 140.3 0 39.8-1.7 75.9-11 107.7-27.7 34.5-18.2 61.2-44.9 79.4-79.4 16.7-31.8 26-67.9 27.7-107.7 1.2-28.1 1.2-112.3 0-140.3zM224.1 338c-45.4 0-82.1-36.7-82.1-82.1s36.7-82.1 82.1-82.1 82.1 36.7 82.1 82.1-36.7 82.1-82.1 82.1zm146.4-194.3c-24.1 0-43.7-19.5-43.7-43.7s19.5-43.7 43.7-43.7 43.7 19.5 43.7 43.7-19.6 43.7-43.7 43.7z"/>
</svg>