<svg aria-hidden="true" focusable="false" data-prefix="fab" data-icon="twitter" class="svg-inline--fa fa-twitter fa-w-16" role="img" xmlns="http://www.w3.org/2000/svg" viewBox="0 0 512 512">
  <path fill="currentColor" d="M459.4 151.9c.33 4.54.33 9.09.33 13.63 0 138.72-105.58 298.56-298.56 298.56-59.45 0-114.68-17.22-161.14-47.12 8.4.99 16.81 1.49 25.34 1.49 49.05 0 94.21-16.68 130.27-44.86-46.14-.99-84.79-31.37-98.16-73.77 6.37 1.16 12.86 1.82 19.48 1.82 9.41 0 18.56-1.33 27.25-3.74-48.29-9.77-84.79-52.11-84.79-103.1v-1.33c14.3 7.95 30.6 12.86 47.78 13.52-28.38-18.89-47.12-51.15-47.12-87.38 0-19.48 5.25-37.73 14.41-53.45 52.11 63.95 130.27 105.58 218.37 110.25-1.82-7.95-2.74-16.05-2.74-24.27 0-58.56 47.78-106.5 106.5-106.5 30.6 0 58.56 12.86 78.11 33.54 24.27-4.77 47.12-13.63 67.67-25.8-7.95 24.84-24.84 45.63-46.81 58.56 21.63-2.74 42.42-8.29 61.74-16.68-14.41 21.63-32.62 40.84-53.45 56.3z"></path>
</svg>